<svg width="96" height="30" viewBox="0 0 96 30" fill="none" xmlns="http://www.w3.org/2000/svg">
<path d="M50.4836 7.57141C50.4836 8.66664 49.6239 9.52379 48.5254 9.52379C47.4269 9.52379 46.5672 8.66664 46.5672 7.57141C46.5672 6.47617 47.4269 5.61902 48.5254 5.61902C49.6717 5.66664 50.4836 6.52379 50.4836 7.57141Z" fill="white"/>
<path d="M42.5075 11.4762C42.5075 11.6666 42.5075 11.9524 42.5075 11.9524C42.5075 11.9524 41.6 10.7619 39.594 10.7619C36.3463 10.7619 33.8149 13.2381 33.8149 16.6666C33.8149 20.0476 36.3463 22.5714 39.594 22.5714C41.6 22.5714 42.5075 21.3333 42.5075 21.3333V21.8571C42.5075 22.0952 42.6985 22.2857 42.9373 22.2857H45.3731V11.0476C45.3731 11.0476 43.1761 11.0476 42.9373 11.0476C42.6508 11.0476 42.5075 11.2381 42.5075 11.4762Z" fill="white"/>
<path d="M42.5075 18.619C42.0776 19.2857 41.1702 19.8571 40.0717 19.8571C38.1612 19.8571 36.6806 18.6666 36.6806 16.619C36.6806 14.5714 38.1612 13.3809 40.0717 13.3809C41.1224 13.3809 42.0776 14 42.5075 14.619V18.619Z" fill="#B3BAC5"/>
<path d="M47.0925 11.0476H49.9582V22.2381H47.0925V11.0476Z" fill="white"/>
<path d="M89.9343 10.7619C87.9761 10.7619 87.0209 11.9524 87.0209 11.9524V5.66664H84.1552V22.2381C84.1552 22.2381 86.3523 22.2381 86.5911 22.2381C86.8299 22.2381 87.0209 22.0476 87.0209 21.8095V21.2857C87.0209 21.2857 87.9284 22.5238 89.9343 22.5238C93.1821 22.5238 95.7134 20 95.7134 16.619C95.7134 13.2381 93.1821 10.7619 89.9343 10.7619Z" fill="white"/>
<path d="M89.4567 19.8095C88.3582 19.8095 87.4985 19.2381 87.0209 18.5714V14.5714C87.4508 13.9524 88.406 13.3333 89.4567 13.3333C91.3672 13.3333 92.8478 14.5238 92.8478 16.5714C92.8478 18.619 91.3672 19.8095 89.4567 19.8095Z" fill="#B3BAC5"/>
<path d="M82.6746 15.619V22.2857H79.809V15.9524C79.809 14.0952 79.1881 13.3809 77.612 13.3809C76.7523 13.3809 75.8448 13.8095 75.2717 14.4762V22.2857H72.406V11.0476H74.6985C74.9373 11.0476 75.1284 11.2381 75.1284 11.4762V11.9524C75.9881 11.0952 77.0866 10.7619 78.1851 10.7619C79.4269 10.7619 80.4776 11.1428 81.3373 11.8571C82.2925 12.6666 82.6746 13.7143 82.6746 15.619Z" fill="white"/>
<path d="M65.4328 10.7619C63.4746 10.7619 62.5194 11.9524 62.5194 11.9524V5.66664H59.6537V22.2381C59.6537 22.2381 61.8508 22.2381 62.0896 22.2381C62.3284 22.2381 62.5194 22.0476 62.5194 21.8095V21.2857C62.5194 21.2857 63.4269 22.5238 65.4328 22.5238C68.6806 22.5238 71.212 20 71.212 16.619C71.2597 13.2381 68.7284 10.7619 65.4328 10.7619Z" fill="white"/>
<path d="M64.9552 19.8095C63.8567 19.8095 62.997 19.2381 62.5194 18.5714V14.5714C62.9493 13.9524 63.9045 13.3333 64.9552 13.3333C66.8657 13.3333 68.3463 14.5238 68.3463 16.5714C68.3463 18.619 66.8657 19.8095 64.9552 19.8095Z" fill="#B3BAC5"/>
<path d="M57.2179 10.7619C58.0776 10.7619 58.5552 10.9047 58.5552 10.9047V13.5714C58.5552 13.5714 56.1672 12.7619 54.6866 14.4762V22.2857H51.8209V11.0476C51.8209 11.0476 54.0179 11.0476 54.2567 11.0476C54.4955 11.0476 54.6866 11.2381 54.6866 11.4762V11.9524C55.1642 11.3333 56.3105 10.7619 57.2179 10.7619Z" fill="white"/>
<path d="M27.4149 21.2381C27.2717 20.8571 27.1284 20.4762 26.9851 20.1428C26.7463 19.619 26.5075 19.0952 26.3164 18.619H26.2687C24.2149 14.1428 22.0179 9.61902 19.6776 5.14283L19.5821 4.95236C19.3433 4.52379 19.1045 4.0476 18.8657 3.57141C18.5791 3.0476 18.2448 2.47617 17.7672 1.95236C16.8119 0.761881 15.4269 0.0952148 13.994 0.0952148C12.5134 0.0952148 11.1761 0.761881 10.1731 1.90474C9.74329 2.42855 9.40896 2.99998 9.07464 3.52379C8.83583 3.99998 8.59702 4.47617 8.35822 4.90474L8.2627 5.09521C5.97016 9.57141 3.77314 14.0952 1.67165 18.5714L1.62389 18.619C1.43285 19.0952 1.19404 19.619 0.955233 20.1428C0.81195 20.4762 0.668666 20.8095 0.525382 21.2381C0.143293 22.2857 9.26852e-06 23.3333 0.143293 24.4285C0.477621 26.6666 2.00598 28.5238 4.05971 29.3809C4.82389 29.7143 5.63583 29.8571 6.49553 29.8571C6.73434 29.8571 7.0209 29.8095 7.25971 29.8095C8.2627 29.6666 9.26568 29.3809 10.2687 28.8095C11.5105 28.1428 12.6567 27.1428 13.994 25.7143C15.3314 27.1428 16.5254 28.1428 17.7194 28.8095C18.7224 29.3809 19.7254 29.7143 20.7284 29.8095C20.9672 29.8571 21.2537 29.8571 21.4925 29.8571C22.3522 29.8571 23.1642 29.7143 23.9284 29.3809C26.0299 28.5238 27.4627 26.619 27.797 24.4285C27.9403 23.3809 27.8448 22.3333 27.4149 21.2381Z" fill="white"/>
<path d="M13.9463 22.7619C12.3224 20.7143 11.2717 18.8095 10.9373 17.2381C10.794 16.5714 10.7463 15.9524 10.8418 15.4285C10.8896 14.9524 11.0806 14.5238 11.3194 14.1905C11.8925 13.3809 12.8478 12.8571 13.9463 12.8571C15.0448 12.8571 16.0478 13.3333 16.5731 14.1905C16.8119 14.5714 17.003 14.9524 17.0508 15.4285C17.1463 15.9524 17.0985 16.5714 16.9552 17.2381C16.6209 18.8095 15.5702 20.7143 13.9463 22.7619Z" fill="#B3BAC5"/>
<path d="M25.8866 24.1905C25.6955 25.7619 24.6448 27.0952 23.1642 27.6666C22.4478 27.9524 21.6836 28.0476 20.8717 27.9524C20.1075 27.8571 19.3911 27.619 18.5791 27.1905C17.4806 26.5714 16.4299 25.6666 15.1881 24.2857C17.1463 21.8571 18.3403 19.6666 18.8179 17.7143C19.009 16.8095 19.0567 15.9524 18.9612 15.1905C18.8179 14.4285 18.5791 13.7619 18.1493 13.1428C17.2418 11.8095 15.6657 11.0476 13.9463 11.0476C12.2269 11.0476 10.6508 11.8571 9.74329 13.1428C9.31344 13.7619 9.07464 14.4285 8.93135 15.1905C8.78807 15.9524 8.83583 16.8095 9.07464 17.7143C9.50449 19.6666 10.7463 21.9047 12.7045 24.3333C11.4627 25.7143 10.3642 26.619 9.31344 27.2381C8.54926 27.6666 7.78508 27.9047 7.02091 28C6.20896 28.0952 5.44479 27.9524 4.77613 27.7143C3.29553 27.0952 2.24479 25.7619 2.05374 24.2381C1.95822 23.4762 2.00598 22.7619 2.34031 21.9047C2.43583 21.619 2.57911 21.2857 2.7224 20.9524C2.91344 20.4762 3.15225 19.9524 3.39105 19.4762L3.43882 19.4285C5.49255 15 7.68956 10.4762 10.0299 6.0476L10.1254 5.85712C10.3642 5.42855 10.603 4.95236 10.8418 4.47617C11.0806 3.99998 11.3672 3.57141 11.7015 3.14283C12.3224 2.42855 13.1821 2.0476 14.0896 2.0476C14.997 2.0476 15.8567 2.42855 16.4776 3.14283C16.8119 3.52379 17.0985 3.99998 17.3373 4.47617C17.5761 4.90474 17.8149 5.38093 18.0537 5.85712L18.1493 6.0476C20.4418 10.4762 22.6388 15 24.6925 19.4285V19.4762C24.9314 19.9524 25.1224 20.4762 25.3612 20.9524C25.5045 21.3333 25.6478 21.619 25.7433 21.9047C25.8866 22.6666 25.9821 23.3809 25.8866 24.1905Z" fill="#B3BAC5"/>
</svg>
