<svg width="96" height="25" viewBox="0 0 96 25" fill="none" xmlns="http://www.w3.org/2000/svg">
<path d="M14.016 1.83962C14.016 2.83019 13.152 3.67925 12.144 3.67925C11.136 3.67925 10.272 2.83019 10.272 1.83962C10.272 0.849057 11.136 0 12.144 0C13.152 0 14.016 0.849057 14.016 1.83962Z" fill="white"/>
<path d="M12.144 5.18872C11.04 5.18872 10.176 6.03778 10.176 7.12268C10.176 8.20759 11.04 9.05665 12.144 9.05665C13.248 9.05665 14.112 8.20759 14.112 7.12268C14.112 5.99061 13.248 5.18872 12.144 5.18872Z" fill="white"/>
<path d="M12.144 10.3302C11.04 10.3302 10.128 11.2264 10.128 12.3113C10.128 13.3962 11.04 14.2925 12.144 14.2925C13.248 14.2925 14.16 13.3962 14.16 12.3113C14.208 11.2264 13.248 10.3302 12.144 10.3302Z" fill="white"/>
<path d="M12.144 15.566C11.04 15.566 10.176 16.4151 10.176 17.5C10.176 18.5849 11.04 19.434 12.144 19.434C13.248 19.434 14.112 18.5849 14.112 17.5C14.112 16.4623 13.248 15.566 12.144 15.566Z" fill="white"/>
<path d="M12.144 20.8962C11.136 20.8962 10.272 21.7453 10.272 22.7359C10.272 23.7264 11.136 24.5755 12.144 24.5755C13.152 24.5755 14.016 23.7264 14.016 22.7359C14.016 21.7453 13.2 20.8962 12.144 20.8962Z" fill="white"/>
<path d="M17.328 4.95288C16.128 4.95288 15.12 5.94345 15.12 7.12269C15.12 8.30194 16.128 9.2925 17.328 9.2925C18.528 9.2925 19.536 8.30194 19.536 7.12269C19.536 5.94345 18.528 4.95288 17.328 4.95288Z" fill="white"/>
<path d="M17.328 10.0944C16.08 10.0944 15.024 11.0849 15.024 12.3585C15.024 13.5849 16.032 14.6227 17.328 14.6227C18.576 14.6227 19.632 13.6321 19.632 12.3585C19.632 11.0849 18.576 10.0944 17.328 10.0944Z" fill="white"/>
<path d="M17.328 15.3302C16.128 15.3302 15.12 16.3208 15.12 17.5C15.12 18.6793 16.128 19.6698 17.328 19.6698C18.528 19.6698 19.536 18.6793 19.536 17.5C19.536 16.3208 18.528 15.3302 17.328 15.3302Z" fill="white"/>
<path d="M22.656 9.81128C21.312 9.81128 20.112 10.8962 20.112 12.3113C20.112 13.632 21.216 14.8113 22.656 14.8113C24.096 14.8113 25.2 13.7264 25.2 12.3113C25.104 10.8962 24 9.81128 22.656 9.81128Z" fill="white"/>
<path d="M6.91199 5.42456C5.99999 5.42456 5.23199 6.17928 5.23199 7.0755C5.23199 7.97173 5.99999 8.72645 6.91199 8.72645C7.82399 8.72645 8.59199 7.97173 8.59199 7.0755C8.59199 6.17928 7.87199 5.42456 6.91199 5.42456Z" fill="white"/>
<path d="M6.912 10.566C5.904 10.566 5.136 11.3208 5.136 12.3113C5.136 13.3019 5.904 14.0566 6.912 14.0566C7.92 14.0566 8.688 13.3019 8.688 12.3113C8.688 11.3208 7.92 10.566 6.912 10.566Z" fill="white"/>
<path d="M6.91199 15.8019C5.99999 15.8019 5.23199 16.5566 5.23199 17.4528C5.23199 18.3491 5.99999 19.1038 6.91199 19.1038C7.82399 19.1038 8.59199 18.3491 8.59199 17.4528C8.59199 16.5566 7.87199 15.8019 6.91199 15.8019Z" fill="white"/>
<path d="M1.68 10.849C0.815997 10.849 0.143997 11.5094 0.143997 12.3584C0.143997 13.2075 0.815997 13.8679 1.68 13.8679C2.544 13.8679 3.216 13.2075 3.216 12.3584C3.216 11.5094 2.544 10.849 1.68 10.849Z" fill="white"/>
<path d="M44.304 9.10376C44.112 9.10376 43.968 9.29244 43.968 9.43395V22.5C43.968 22.6887 44.16 22.8302 44.304 22.8302H45.888C46.08 22.8302 46.224 22.6415 46.224 22.5V9.43395C46.224 9.24527 46.032 9.10376 45.888 9.10376H44.304Z" fill="white"/>
<path d="M45.168 3.58496C44.304 3.58496 43.632 4.24534 43.632 5.09439C43.632 5.94345 44.304 6.60383 45.168 6.60383C46.032 6.60383 46.704 5.94345 46.704 5.09439C46.704 4.24534 45.984 3.58496 45.168 3.58496Z" fill="white"/>
<path d="M78.384 9.10376C78.192 9.10376 78.048 9.29244 78.048 9.43395V22.5C78.048 22.6887 78.24 22.8302 78.384 22.8302H79.968C80.16 22.8302 80.304 22.6415 80.304 22.5V9.43395C80.304 9.24527 80.112 9.10376 79.968 9.10376H78.384Z" fill="white"/>
<path d="M79.152 3.58496C78.288 3.58496 77.616 4.24534 77.616 5.09439C77.616 5.94345 78.288 6.60383 79.152 6.60383C80.016 6.60383 80.688 5.94345 80.688 5.09439C80.688 4.24534 80.016 3.58496 79.152 3.58496Z" fill="white"/>
<path d="M57.504 11.2264C57.696 11.2264 57.84 11.0377 57.84 10.8962V9.33958C57.84 9.1509 57.648 9.00939 57.504 9.00939H54.096V4.00939C54.096 3.82071 53.904 3.6792 53.76 3.6792H52.176C51.984 3.6792 51.84 3.86788 51.84 4.00939V9.00939H50.16C49.968 9.00939 49.824 9.19807 49.824 9.33958V10.8962C49.824 11.0849 50.016 11.2264 50.16 11.2264H51.84V18.7735C51.84 21.0849 53.424 22.5943 55.728 22.5943H57.408C57.6 22.5943 57.744 22.4056 57.744 22.2641V20.7075C57.744 20.5188 57.552 20.3773 57.408 20.3773H55.968C54.864 20.3773 54.096 19.6226 54.096 18.4433V11.1792H57.504V11.2264Z" fill="white"/>
<path d="M91.2 11.2264C91.392 11.2264 91.536 11.0377 91.536 10.8962V9.33958C91.536 9.1509 91.344 9.00939 91.2 9.00939H87.792V4.00939C87.792 3.82071 87.6 3.6792 87.456 3.6792H85.872C85.68 3.6792 85.536 3.86788 85.536 4.00939V9.00939H83.856C83.664 9.00939 83.52 9.19807 83.52 9.33958V10.8962C83.52 11.0849 83.712 11.2264 83.856 11.2264H85.536V18.7735C85.536 21.0849 87.12 22.5943 89.424 22.5943H91.104C91.296 22.5943 91.44 22.4056 91.44 22.2641V20.7075C91.44 20.5188 91.248 20.3773 91.104 20.3773H89.568C88.464 20.3773 87.696 19.6226 87.696 18.4433V11.1792H91.152L91.2 11.2264Z" fill="white"/>
<path d="M34.224 11.2265V22.3585C34.224 22.5472 34.416 22.6887 34.56 22.6887H36.144C36.336 22.6887 36.48 22.5 36.48 22.3585V11.2265H40.224C40.416 11.2265 40.56 11.0378 40.56 10.8963V9.33967C40.56 9.15099 40.368 9.00948 40.224 9.00948H36.48V6.08495C36.48 4.90571 37.344 4.10382 38.352 4.10382H40.224C40.416 4.10382 40.56 3.91514 40.56 3.77363V2.21703C40.56 2.02835 40.368 1.88684 40.224 1.88684H38.448C36.096 1.88684 34.224 3.8208 34.224 6.03778V9.00948H32.544C32.352 9.00948 32.208 9.19816 32.208 9.33967V10.8963C32.208 11.085 32.4 11.2265 32.544 11.2265H34.224Z" fill="white"/>
<path d="M73.008 10.6604C71.76 9.33965 69.984 8.58493 68.112 8.58493C66.336 8.58493 64.56 9.33965 63.456 10.4246V2.12267C63.456 1.93399 63.264 1.79248 63.12 1.79248H61.536C61.344 1.79248 61.2 1.98116 61.2 2.12267V15.8491C61.2 20.9434 64.656 23.1604 68.064 23.1604C71.424 23.1604 74.928 20.8963 74.928 15.8491C74.928 13.8208 74.256 11.9812 73.008 10.6604Z" fill="white"/>
<path d="M68.064 21.0377C64.656 21.0377 63.408 18.3962 63.408 15.8962C63.408 12.8302 65.28 10.8019 68.064 10.8019C70.848 10.8019 72.72 12.8774 72.72 15.8962C72.672 18.3962 71.472 21.0377 68.064 21.0377Z" fill="#B3BAC5"/>
</svg>
