<svg width="110" height="32" viewBox="0 0 110 32" fill="none" xmlns="http://www.w3.org/2000/svg">
<path d="M19.7015 3.2C19.2637 1.76552 17.7313 0.993105 16.3084 1.43448C14.8856 1.87586 14.1194 3.42069 14.5572 4.85517L21.5622 26.5931C22.0547 27.9172 23.4776 28.6897 24.8458 28.3034C26.2686 27.8621 27.1443 26.3724 26.7065 24.9379C26.7065 24.8828 19.7015 3.2 19.7015 3.2Z" fill="white"/>
<path d="M8.86566 6.78621C8.42785 5.35173 6.89551 4.57931 5.47262 5.02069C4.04974 5.46207 3.28357 7.0069 3.72138 8.44138L10.7264 30.1793C11.2189 31.5034 12.6418 32.2759 14.0099 31.8897C15.4328 31.4483 16.3084 29.9586 15.8706 28.5241C15.8706 28.469 8.86566 6.78621 8.86566 6.78621Z" fill="white"/>
<path d="M28.5672 21.2414C29.99 20.8 30.7562 19.2552 30.3184 17.8207C29.8806 16.3862 28.3482 15.6138 26.9254 16.0552L5.30844 23.0621C3.99501 23.5586 3.22884 24.9931 3.61193 26.3724C4.04974 27.8069 5.52735 28.6897 6.95024 28.2483C7.05969 28.2483 28.5672 21.2414 28.5672 21.2414Z" fill="white"/>
<path d="M9.79601 27.3655C11.2189 26.9241 13.0249 26.3172 14.9403 25.6552C14.5025 24.2207 13.9005 22.4 13.2438 20.469L8.09949 22.1793L9.79601 27.3655Z" fill="white"/>
<path d="M20.6866 23.7793C22.6567 23.1172 24.4627 22.5655 25.8308 22.069C25.393 20.6345 24.791 18.8138 24.1343 16.8828L18.99 18.5931L20.6866 23.7793Z" fill="white"/>
<path d="M25.0099 10.2621C26.4328 9.82069 27.199 8.27586 26.7612 6.84138C26.3234 5.4069 24.791 4.63448 23.3681 5.07586L1.80596 12.1379C0.492524 12.6345 -0.273645 14.069 0.10944 15.4483C0.54725 16.9379 2.02486 17.8207 3.44775 17.3241C3.50247 17.3241 25.0099 10.2621 25.0099 10.2621Z" fill="white"/>
<path d="M6.29352 16.3862C7.7164 15.9448 9.52237 15.3379 11.4378 14.6759C10.7811 12.6897 10.2338 10.869 9.74128 9.48966L4.597 11.2L6.29352 16.3862Z" fill="white"/>
<path d="M17.1293 12.8552C19.0995 12.1931 20.9055 11.6414 22.2736 11.1448C21.6169 9.15862 21.0696 7.33793 20.5771 5.95862L15.4328 7.66897L17.1293 12.8552Z" fill="white"/>
<path d="M50.403 8.93793C51.3333 9.37931 51.4428 9.65517 50.6766 11.0897C49.9104 12.5793 49.7463 12.6345 48.7612 12.2483C47.5572 11.7517 46.0796 11.3655 45.0945 11.3655C43.5074 11.3655 42.4676 11.9172 42.4676 12.8C42.4676 15.669 51.607 14.1241 51.607 20.3034C51.607 23.3931 48.9801 25.4345 45.0398 25.4345C42.9602 25.4345 40.388 24.7172 38.6368 23.8345C37.7612 23.3931 37.7065 23.1172 38.4726 21.6276C39.1293 20.3586 39.3482 20.1931 40.2786 20.5793C41.8109 21.2414 43.6716 21.7379 44.9851 21.7379C46.4627 21.7379 47.393 21.131 47.393 20.2483C47.393 17.4345 38.0895 18.7586 38.0895 12.8C38.0895 9.65517 40.7164 7.50345 44.602 7.50345C46.4627 7.66897 48.8159 8.22069 50.403 8.93793Z" fill="white"/>
<path d="M57.791 1.65517V24.6069C57.791 24.9379 57.4079 25.3241 56.9154 25.3241H54.5075C53.9602 25.3241 53.6318 24.9379 53.6318 24.6069V1.65517C53.6318 0.496553 53.9602 0.441381 55.7114 0.441381C57.6816 0.386208 57.791 0.551726 57.791 1.65517Z" fill="white"/>
<path d="M91.0099 8.9931C91.8856 9.48966 91.8856 9.76552 90.9552 11.2552C90.0796 12.6345 89.9154 12.7448 88.9303 12.2483C88.2189 11.8621 87.0149 11.531 86.0846 11.531C83.0746 11.531 81.1045 13.5172 81.1045 16.5517C81.1045 19.6966 83.0746 21.7931 86.0846 21.7931C87.1244 21.7931 88.4378 21.4069 89.2587 20.9103C90.1343 20.4138 90.2985 20.4138 91.2288 21.7931C92.0497 23.0621 92.0497 23.3379 91.2836 23.8897C89.9701 24.8276 87.8358 25.5448 85.9751 25.5448C80.4477 25.5448 76.7263 21.9586 76.7263 16.6069C76.7263 11.2552 80.4477 7.72414 86.0298 7.72414C87.7811 7.66897 89.7512 8.22069 91.0099 8.9931Z" fill="white"/>
<path d="M109.124 23.1172C109.836 24 109.562 24.331 107.811 24.9379C106.06 25.6 105.786 25.5448 105.184 24.7172L100.204 18.0414L97.9602 20.1931V24.5517C97.9602 24.8828 97.5771 25.269 97.0846 25.269H94.6766C94.1293 25.269 93.801 24.8828 93.801 24.5517V1.65517C93.801 0.496553 94.1293 0.441381 95.8806 0.441381C97.9055 0.441381 97.9602 0.606898 97.9602 1.65517V14.6759L104.746 8.11035C105.512 7.3931 105.896 7.44828 107.264 8.33104C108.741 9.26897 108.851 9.54483 108.139 10.2621L103.104 15.2276L109.124 23.1172Z" fill="white"/>
<path d="M74.7562 14.5103V24.3862C74.7562 24.9379 74.3731 25.269 73.8806 25.269H71.5274C70.9801 25.269 70.597 24.8828 70.6517 24.331L70.7065 23.2828C69.4477 24.7172 67.5871 25.4897 65.7264 25.4897C62.1691 25.4897 59.7612 23.3931 59.7612 20.3034C59.7612 16.9931 62.4428 14.7862 66.5472 14.7862C68.0796 14.7862 69.5025 15.0621 70.6517 15.5586V14.4C70.6517 12.5793 69.2288 11.4759 66.8209 11.4759C65.6716 11.4759 64.3035 11.9172 63.2089 12.5793C62.3333 13.0759 62.1691 13.0207 61.2388 11.6414C60.3632 10.2621 60.3632 9.98621 61.2388 9.43448C62.8806 8.33104 65.1791 7.66897 67.2587 7.66897C71.8557 7.66897 74.7562 10.2069 74.7562 14.5103Z" fill="white"/>
<path d="M63.7562 20.2483C63.7562 21.4069 64.7413 22.1793 66.2189 22.1793C68.0248 22.1793 69.6666 21.2965 70.597 19.8069V18.2621C69.6666 17.8758 68.4627 17.7103 67.4229 17.7103C65.2338 17.7103 63.7562 18.8138 63.7562 20.2483Z" fill="#B3BAC5"/>
</svg>
