<svg width="90" height="28" viewBox="0 0 90 28" fill="none" xmlns="http://www.w3.org/2000/svg">
<path fill="#10243E" fill-rule="evenodd" clip-rule="evenodd" d="M0 13.8672C0 16.7266 0.798715 18.9167 2.39617 20.4375C3.99362 21.9583 6.2238 22.7188 9.08677 22.7188C14.2357 22.7282 16.7323 21.6328 17.2089 19.1719C17.2575 18.9209 16.9186 18.1263 15.4164 17.9157C13.9142 17.705 12.9404 17.6094 12.4321 18.2344C11.9238 18.8594 10.9799 19.1719 9.60024 19.1719C8.22062 19.1719 7.21704 18.8802 6.58947 18.2969C5.9619 17.7135 5.59625 16.7813 5.49252 15.5H17.2089C17.4889 15.5 17.7197 15.4089 17.9013 15.2266C18.0828 15.0443 18.1735 14.8125 18.1735 14.5312V13.6406C18.1735 10.8489 17.3748 8.70574 15.7774 7.21094C14.1799 5.71614 11.9549 4.96875 9.10233 4.96875C6.24974 4.96875 4.01956 5.73697 2.41173 7.27344C0.803902 8.8099 0 11.0078 0 13.8672ZM12.6966 12.2031H5.4614C5.58588 9.74478 6.79692 8.51562 9.09455 8.51562C11.3922 8.51562 12.5929 9.74478 12.6966 12.2031Z"/>
<path d="M21.0365 21.4531V0.96875C21.0365 0.687499 21.1273 0.45573 21.3088 0.273438C21.4903 0.0911449 21.7159 0 21.9856 0H25.471C25.7407 0 25.9663 0.0911449 26.1478 0.273438C26.3293 0.45573 26.4201 0.687499 26.4201 0.96875V7.23438C28.2043 5.72395 30.1051 4.96875 32.1227 4.96875C34.1402 4.96875 35.7818 5.58593 37.0473 6.82031C38.3128 8.05469 38.9455 9.9427 38.9455 12.4844V21.4531C38.9455 21.724 38.8548 21.9505 38.6732 22.1328C38.4917 22.3151 38.2609 22.4062 37.9809 22.4062H34.5111C34.2414 22.4062 34.0158 22.3151 33.8342 22.1328C33.6527 21.9505 33.5619 21.724 33.5619 21.4531V12.4844C33.5619 9.99478 32.5713 9.23438 30.5901 9.23438C29.2934 9.23438 27.9035 10.5664 26.4201 12.056V21.4531C26.4201 21.724 26.3293 21.9505 26.1478 22.1328C25.9663 22.3151 25.7407 22.4062 25.471 22.4062H21.9856C21.7159 22.4062 21.4903 22.3151 21.3088 22.1328C21.1273 21.9505 21.0365 21.724 21.0365 21.4531Z" fill="#10243E"/>
<path d="M45.7762 24.0312L47.8145 24.2969C49.0526 24.2969 49.9748 23.5243 50.581 21.9793C50.6337 21.8451 48.3796 22.0225 46.4764 19.6383C44.5732 17.2541 44.4544 16.4819 43.6038 13.7527L41.2854 6.2058C41.2543 6.12247 41.2387 6.02612 41.2387 5.91674C41.2387 5.80736 41.3036 5.67455 41.4332 5.5183C41.5629 5.36205 41.7574 5.27872 42.0167 5.2683L45.076 5.28125C45.3768 5.28125 45.6647 5.38281 45.9396 5.58594C46.2144 5.78906 46.3934 6.04167 46.4764 6.34375L48.5147 12.9688C49.0229 14.5938 49.539 15.7187 50.0628 16.3438C50.5867 16.9688 51.2065 17.2812 51.9222 17.2812L55.0186 6.34375C55.1015 6.04167 55.2649 5.78906 55.5087 5.58594C55.7524 5.38281 56.0247 5.28125 56.3256 5.28125H59.6086C59.8679 5.28125 60.0598 5.36458 60.1843 5.53125C60.3088 5.69792 60.371 5.83594 60.371 5.94531C60.371 6.05469 60.3607 6.14583 60.3399 6.21875L56.2633 20.8125C55.5372 23.3958 54.6374 25.2396 53.5637 26.3438C52.4901 27.4479 51.1079 28 49.4171 28L48.7672 27.9967C47.4163 27.9822 46.4375 27.9208 45.8306 27.8125C45.1305 27.6875 44.6922 27.5339 44.5159 27.3516C44.3395 27.1693 44.2513 26.9583 44.2513 26.7188V25C44.2513 24.7187 44.3395 24.487 44.5159 24.3047C44.6922 24.1224 44.9204 24.0312 45.2005 24.0312H45.7762Z" fill="#10243E"/>
<path fill="#10243E" fill-rule="evenodd" clip-rule="evenodd" d="M60.091 17.2188C60.091 18.9688 60.7756 20.3229 62.1448 21.2812C63.5244 22.2396 65.2853 22.7214 67.4273 22.7266C69.5693 22.7318 71.4598 22.1458 73.0987 20.9688V21.4531C73.0987 21.724 73.1869 21.9505 73.3633 22.1328C73.5396 22.3151 73.7678 22.4062 74.0479 22.4062H77.0509C77.3309 22.4062 77.5591 22.3177 77.7355 22.1406C77.9118 21.9635 78 21.7344 78 21.4531V11.7812C78 9.45832 77.2532 7.74219 75.7594 6.63281C74.2657 5.52343 72.2845 4.96875 69.8157 4.96875C65.0155 4.96875 62.2533 6.04639 61.5289 8.2017C61.4001 8.5848 61.4935 9.32095 62.9365 9.59891C64.3795 9.87688 65.9958 10.0911 66.5093 9.46094L66.617 9.3391C67.1434 8.79011 67.9995 8.51562 69.1855 8.51562C70.4562 8.51562 71.3457 8.75521 71.854 9.23438C72.3623 9.71354 72.6164 10.5625 72.6164 11.7812H67.4662C65.2982 11.7812 63.527 12.25 62.1526 13.1875C60.7782 14.125 60.091 15.4688 60.091 17.2188ZM72.6164 15.3281H67.8396C67.1135 15.3281 66.5404 15.5052 66.1203 15.8594C65.7002 16.2135 65.4901 16.6719 65.4901 17.2344C65.4901 17.7969 65.708 18.2604 66.1436 18.625C66.5793 18.9896 67.1965 19.1719 67.9952 19.1719C69.5927 19.1719 71.1331 18.7031 72.6164 17.7656V15.3281Z" />
<path fill-rule="evenodd" clip-rule="evenodd" d="M86 14C88.2091 14 90 12.2091 90 10C90 7.79086 88.2091 6 86 6C83.7909 6 82 7.79086 82 10C82 12.2091 83.7909 14 86 14Z" fill="#1576D8"/>
</svg>
