<?xml version="1.0" standalone="no"?>
<!DOCTYPE svg PUBLIC "-//W3C//DTD SVG 1.1//EN" "http://www.w3.org/Graphics/SVG/1.1/DTD/svg11.dtd" >
<svg xmlns="http://www.w3.org/2000/svg">
<metadata>Generated by IcoMoon</metadata>
<defs>
<font id="icomoon" horiz-adv-x="1024">
<font-face units-per-em="1024" ascent="960" descent="-64" />
<missing-glyph horiz-adv-x="1024" />
<glyph unicode="&#x20;" horiz-adv-x="512" d="" />
<glyph unicode="&#xe900;" horiz-adv-x="3277" d="M1723.174 701.563c0-37.384-29.344-66.641-66.84-66.641s-66.84 29.257-66.84 66.641c0 37.384 29.344 66.642 66.84 66.642 39.127-1.625 66.84-30.883 66.84-66.642z" />
<glyph unicode="&#xe901;" horiz-adv-x="3277" d="M1450.923 568.279c0-6.499 0-16.254 0-16.254s-30.976 40.636-99.447 40.636c-110.855 0-197.26-84.521-197.26-201.547 0-115.405 86.405-201.551 197.26-201.551 68.471 0 99.447 42.26 99.447 42.26v-17.879c0-8.127 6.519-14.63 14.671-14.63h83.142v383.594c0 0-74.991 0-83.142 0-9.779 0-14.671-6.502-14.671-14.63z" />
<glyph unicode="&#xe902;" horiz-adv-x="3277" d="M1450.923 324.471c-14.674-22.757-45.647-42.26-83.142-42.26-65.212 0-115.75 40.636-115.75 110.527s50.538 110.527 115.75 110.527c35.864 0 68.468-21.132 83.142-42.26v-136.533z" />
<glyph unicode="&#xe903;" horiz-adv-x="3277" d="M1607.424 582.909h97.816v-381.969h-97.816v381.969z" />
<glyph unicode="&#xe904;" horiz-adv-x="3277" d="M3069.757 592.66c-66.84 0-99.444-40.636-99.444-40.636v214.554h-97.816v-565.639c0 0 74.994 0 83.145 0s14.671 6.502 14.671 14.63v17.879c0 0 30.976-42.26 99.444-42.26 110.858 0 197.26 86.146 197.26 201.551 0 115.401-86.402 199.922-197.26 199.922z" />
<glyph unicode="&#xe905;" horiz-adv-x="3277" d="M3053.455 283.836c-37.495 0-66.84 19.504-83.142 42.26v136.533c14.674 21.129 47.278 42.26 83.142 42.26 65.212 0 115.75-40.636 115.75-110.527s-50.538-110.527-115.75-110.527z" />
<glyph unicode="&#xe906;" horiz-adv-x="3277" d="M2821.96 426.871v-227.557h-97.812v216.177c0 63.392-21.193 87.774-74.991 87.774-29.344 0-60.32-14.63-79.882-37.386v-266.564h-97.816v383.594h78.251c8.151 0 14.674-6.502 14.674-14.63v-16.254c29.344 29.259 66.84 40.636 104.335 40.636 42.387 0 78.251-13.001 107.595-37.383 32.604-27.631 45.647-63.392 45.647-128.406z" />
<glyph unicode="&#xe907;" horiz-adv-x="3277" d="M2233.44 592.66c-66.84 0-99.444-40.636-99.444-40.636v214.554h-97.816v-565.639c0 0 74.994 0 83.145 0s14.671 6.502 14.671 14.63v17.879c0 0 30.976-42.26 99.444-42.26 110.858 0 197.263 86.146 197.263 201.551 1.628 115.401-84.774 199.922-197.263 199.922z" />
<glyph unicode="&#xe908;" horiz-adv-x="3277" d="M2217.137 283.836c-37.495 0-66.84 19.504-83.142 42.26v136.533c14.674 21.129 47.278 42.26 83.142 42.26 65.212 0 115.75-40.636 115.75-110.527s-50.538-110.527-115.75-110.527z" />
<glyph unicode="&#xe909;" horiz-adv-x="3277" d="M1953.038 592.66c29.344 0 45.647-4.874 45.647-4.874v-91.023c0 0-81.51 27.631-132.048-30.884v-266.564h-97.816v383.594c0 0 74.991 0 83.142 0s14.674-6.502 14.674-14.63v-16.254c16.302 21.132 55.429 40.636 86.402 40.636z" />
<glyph unicode="&#xe90a;" horiz-adv-x="3277" d="M935.762 235.073c-4.888 13.005-9.779 26.006-14.671 37.386-8.151 17.879-16.302 35.758-22.825 52.012h-1.628c-70.103 152.788-145.094 307.199-224.976 459.987l-3.26 6.501c-8.151 14.629-16.302 30.882-24.453 47.136-9.783 17.879-21.193 37.384-37.495 55.264-32.608 40.635-79.882 63.391-128.792 63.391-50.538 0-96.184-22.756-130.42-61.765-14.671-17.879-26.083-37.384-37.494-55.264-8.151-16.254-16.303-32.508-24.454-47.136l-3.26-6.501c-78.252-152.788-153.244-307.2-224.975-459.987l-1.63-1.625c-6.521-16.254-14.672-34.133-22.823-52.012-4.891-11.38-9.781-22.757-14.672-37.386-13.042-35.758-17.933-71.516-13.042-108.899 11.412-76.394 63.58-139.786 133.68-169.042 26.084-11.38 53.798-16.254 83.143-16.254 8.151 0 17.933 1.625 26.084 1.625 34.235 4.878 68.47 14.63 102.707 34.133 42.387 22.757 81.51 56.89 127.157 105.649 45.65-48.759 86.405-82.893 127.16-105.649 34.236-19.504 68.471-30.884 102.707-34.133 8.151-1.625 17.93-1.625 26.081-1.625 29.344 0 57.061 4.874 83.145 16.254 71.731 29.256 120.637 94.273 132.048 169.042 4.891 35.758 1.632 71.516-13.042 108.899z" />
<glyph unicode="&#xe90b;" horiz-adv-x="3277" d="M476.034 183.060c-55.429 69.891-91.293 134.909-102.707 188.546-4.891 22.757-6.519 43.885-3.26 61.768 1.632 16.251 8.151 30.88 16.302 42.257 19.562 27.634 52.169 45.513 89.665 45.513s71.731-16.254 89.661-45.513c8.151-13.001 14.674-26.006 16.305-42.257 3.26-17.882 1.628-39.011-3.263-61.768-11.411-53.637-47.275-118.654-102.704-188.546z" />
<glyph unicode="&#xe90c;" horiz-adv-x="3277" d="M883.596 134.298c-6.523-53.637-42.387-99.147-92.925-118.651-24.453-9.755-50.538-13.005-78.251-9.755-26.085 3.253-50.538 11.38-78.254 26.006-37.495 21.132-73.359 52.016-115.746 99.151 66.84 82.896 107.595 157.665 123.897 224.304 6.523 30.884 8.151 60.14 4.891 86.146-4.891 26.010-13.042 48.763-27.713 69.895-30.976 45.51-84.774 71.516-143.462 71.516s-112.486-27.631-143.463-71.516c-14.672-21.132-22.823-43.885-27.714-69.895-4.891-26.006-3.26-55.262 4.891-86.146 14.672-66.639 57.059-143.032 123.899-225.929-42.387-47.138-79.882-78.019-115.748-99.151-26.084-14.626-52.168-22.753-78.252-26.006-27.715-3.249-53.798 1.625-76.622 9.752-50.538 21.132-86.403 66.642-92.924 118.654-3.26 26.006-1.63 50.388 9.782 79.647 3.26 9.752 8.151 21.129 13.042 32.505 6.521 16.254 14.672 34.133 22.823 50.388l1.631 1.628c70.101 151.159 145.092 305.572 224.976 456.735l3.26 6.502c8.151 14.629 16.302 30.882 24.453 47.136s17.934 30.882 29.344 45.511c21.193 24.381 50.538 37.384 81.514 37.384 30.973 0 60.317-13.003 81.51-37.384 11.411-13.003 21.193-29.257 29.344-45.511 8.151-14.629 16.302-30.882 24.453-47.136l3.263-6.502c78.251-151.163 153.242-305.575 223.341-456.735v-1.628c8.154-16.254 14.674-34.133 22.825-50.388 4.891-13.001 9.783-22.753 13.042-32.505 4.891-26.006 8.151-50.388 4.891-78.022z" />
<glyph unicode="&#xe90d;" horiz-adv-x="3932" d="M574.095 884.649c0-40.574-35.389-75.351-76.677-75.351s-76.677 34.777-76.677 75.351c0 40.573 35.389 75.351 76.677 75.351s76.677-34.777 76.677-75.351z" />
<glyph unicode="&#xe90e;" horiz-adv-x="3932" d="M497.418 747.47c-45.22 0-80.609-34.777-80.609-79.215s35.389-79.215 80.609-79.215c45.22 0 80.609 34.777 80.609 79.215 0 46.37-35.389 79.215-80.609 79.215z" />
<glyph unicode="&#xe90f;" horiz-adv-x="3932" d="M497.418 536.875c-45.22 0-82.575-36.708-82.575-81.146s37.356-81.15 82.575-81.15c45.22 0 82.575 36.712 82.575 81.15 1.966 44.438-37.356 81.146-82.575 81.146z" />
<glyph unicode="&#xe910;" horiz-adv-x="3932" d="M497.418 322.417c-45.22 0-80.609-34.779-80.609-79.217s35.389-79.217 80.609-79.217c45.22 0 80.609 34.779 80.609 79.217 0 42.504-35.389 79.217-80.609 79.217z" />
<glyph unicode="&#xe911;" horiz-adv-x="3932" d="M497.418 104.092c-41.288 0-76.677-34.779-76.677-75.354 0-40.571 35.389-75.35 76.677-75.35s76.677 34.779 76.677 75.35c0 40.575-33.423 75.354-76.677 75.354z" />
<glyph unicode="&#xe912;" horiz-adv-x="3932" d="M709.755 757.13c-49.152 0-90.44-40.574-90.44-88.875s41.288-88.875 90.44-88.875c49.152 0 90.44 40.573 90.44 88.875s-41.288 88.875-90.44 88.875z" />
<glyph unicode="&#xe913;" horiz-adv-x="3932" d="M709.755 546.533c-51.118 0-94.372-40.571-94.372-92.738 0-50.233 41.288-92.742 94.372-92.742 51.118 0 94.372 40.575 94.372 92.742s-43.254 92.738-94.372 92.738z" />
<glyph unicode="&#xe914;" horiz-adv-x="3932" d="M709.755 332.075c-49.152 0-90.44-40.575-90.44-88.875 0-48.304 41.288-88.875 90.44-88.875s90.44 40.571 90.44 88.875c0 48.3-41.288 88.875-90.44 88.875z" />
<glyph unicode="&#xe915;" horiz-adv-x="3932" d="M927.99 558.13c-55.050 0-104.202-44.438-104.202-102.401 0-54.096 45.22-102.4 104.202-102.4s104.202 44.438 104.202 102.4c-3.932 57.962-49.152 102.401-104.202 102.401z" />
<glyph unicode="&#xe916;" horiz-adv-x="3932" d="M283.115 737.81c-37.356 0-68.813-30.913-68.813-67.623s31.457-67.623 68.813-67.623c37.356 0 68.813 30.913 68.813 67.623s-29.491 67.623-68.813 67.623z" />
<glyph unicode="&#xe917;" horiz-adv-x="3932" d="M283.116 527.217c-41.288 0-72.745-30.917-72.745-71.487 0-40.575 31.457-71.487 72.745-71.487s72.745 30.913 72.745 71.487c0 40.571-31.457 71.487-72.745 71.487z" />
<glyph unicode="&#xe918;" horiz-adv-x="3932" d="M283.115 312.754c-37.356 0-68.813-30.913-68.813-67.621 0-36.712 31.457-67.625 68.813-67.625s68.813 30.913 68.813 67.625c0 36.708-29.491 67.621-68.813 67.621z" />
<glyph unicode="&#xe919;" horiz-adv-x="3932" d="M68.813 515.625c-35.39 0-62.915-27.050-62.915-61.825 0-34.779 27.525-61.829 62.915-61.829s62.915 27.050 62.915 61.829c0 34.775-27.525 61.825-62.915 61.825z" />
<glyph unicode="&#xe91a;" horiz-adv-x="3932" d="M1814.692 587.11c-7.864 0-13.763-7.728-13.763-13.525v-535.185c0-7.729 7.864-13.525 13.763-13.525h64.881c7.864 0 13.763 7.729 13.763 13.525v535.185c0 7.728-7.864 13.525-13.763 13.525h-64.881z" />
<glyph unicode="&#xe91b;" horiz-adv-x="3932" d="M1850.081 813.16c-35.389 0-62.915-27.049-62.915-61.826s27.525-61.827 62.915-61.827c35.389 0 62.915 27.049 62.915 61.827s-29.491 61.826-62.915 61.826z" />
<glyph unicode="&#xe91c;" horiz-adv-x="3932" d="M3210.609 587.11c-7.864 0-13.763-7.728-13.763-13.525v-535.185c0-7.729 7.864-13.525 13.763-13.525h64.881c7.864 0 13.763 7.729 13.763 13.525v535.185c0 7.728-7.864 13.525-13.763 13.525h-64.881z" />
<glyph unicode="&#xe91d;" horiz-adv-x="3932" d="M3242.066 813.16c-35.389 0-62.915-27.049-62.915-61.826s27.525-61.827 62.915-61.827c35.389 0 62.915 27.049 62.915 61.827s-27.525 61.826-62.915 61.826z" />
<glyph unicode="&#xe91e;" horiz-adv-x="3932" d="M2355.364 500.167c7.864 0 13.763 7.729 13.763 13.525v63.759c0 7.728-7.864 13.525-13.763 13.525h-139.592v204.8c0 7.728-7.864 13.525-13.763 13.525h-64.881c-7.864 0-13.763-7.728-13.763-13.525v-204.8h-68.813c-7.864 0-13.763-7.728-13.763-13.525v-63.759c0-7.729 7.864-13.525 13.763-13.525h68.813v-309.129c0-94.675 64.881-156.5 159.252-156.5h68.813c7.864 0 13.763 7.729 13.763 13.525v63.758c0 7.729-7.864 13.525-13.763 13.525h-58.982c-45.22 0-76.677 30.913-76.677 79.217v297.538h139.592v-1.933z" />
<glyph unicode="&#xe91f;" horiz-adv-x="3932" d="M3735.552 500.167c7.864 0 13.763 7.729 13.763 13.525v63.759c0 7.728-7.864 13.525-13.763 13.525h-139.592v204.8c0 7.728-7.864 13.525-13.763 13.525h-64.881c-7.864 0-13.763-7.728-13.763-13.525v-204.8h-68.813c-7.864 0-13.763-7.728-13.763-13.525v-63.759c0-7.729 7.864-13.525 13.763-13.525h68.813v-309.129c0-94.675 64.881-156.5 159.252-156.5h68.813c7.864 0 13.763 7.729 13.763 13.525v63.758c0 7.729-7.864 13.525-13.763 13.525h-62.915c-45.22 0-76.677 30.913-76.677 79.217v297.538h141.558l1.966-1.933z" />
<glyph unicode="&#xe920;" horiz-adv-x="3932" d="M1401.815 500.163v-455.967c0-7.729 7.864-13.525 13.763-13.525h64.881c7.864 0 13.763 7.729 13.763 13.525v455.967h153.354c7.864 0 13.763 7.729 13.763 13.525v63.76c0 7.728-7.864 13.525-13.763 13.525h-153.354v119.789c0 48.302 35.389 81.147 76.677 81.147h76.677c7.864 0 13.763 7.728 13.763 13.525v63.758c0 7.728-7.864 13.525-13.763 13.525h-72.745c-96.338 0-173.015-79.215-173.015-170.023v-121.721h-68.813c-7.864 0-13.763-7.728-13.763-13.525v-63.76c0-7.729 7.864-13.525 13.763-13.525h68.813z" />
<glyph unicode="&#xe921;" horiz-adv-x="3932" d="M2990.408 523.35c-51.118 54.098-123.863 85.011-200.54 85.011-72.745 0-145.49-30.913-190.71-75.353v340.047c0 7.728-7.864 13.525-13.763 13.525h-64.881c-7.864 0-13.763-7.728-13.763-13.525v-562.235c0-208.663 141.558-299.471 281.149-299.471 137.626 0 281.149 92.738 281.149 299.471 0 83.079-27.525 158.429-78.643 212.529z" />
<glyph unicode="&#xe922;" horiz-adv-x="3932" d="M2787.901 98.296c-139.592 0-190.71 108.196-190.71 210.596 0 125.583 76.677 208.663 190.71 208.663s190.71-85.012 190.71-208.663c-1.966-102.4-51.118-210.596-190.71-210.596z" />
<glyph unicode="&#xe923;" glyph-name="flag" horiz-adv-x="755" d="M650.132 946.526h-545.738c-51.092 0-90.92-41.661-90.92-90.974v-879.131l363.789 212.237 363.789-212.237v879.185c0 49.26-41.661 90.92-90.974 90.92zM650.132 133.686l-272.869 159.151-272.869-159.151v710.548c0 5.659 3.773 11.318 11.372 11.318h522.995c5.659 0 11.318-5.659 11.318-11.318v-710.548z" />
<glyph unicode="&#xe924;" horiz-adv-x="3072" d="M756.061 603.981h-358.134v-105.6h254.675c-12.733-148.8-136.886-214.4-253.082-214.4-149.621 0-280.142 118.4-280.142 283.2 0 161.6 124.153 286.4 280.142 286.4 120.97 0 191.005-76.8 191.005-76.8l73.219 76.8c0 0-95.504 105.6-268.998 105.6-221.249 1.6-391.562-185.6-391.562-388.8 0-198.4 160.763-392 397.927-392 208.515 0 361.318 142.4 361.318 355.2 0 44.8-6.368 70.4-6.368 70.4z" />
<glyph unicode="&#xe925;" horiz-adv-x="3072" d="M1047.344 682.381c-146.435 0-251.488-115.2-251.488-249.6 0-137.6 101.869-254.4 254.672-254.4 138.48 0 249.898 104 249.898 251.2-1.59 166.4-132.112 252.8-253.082 252.8z" />
<glyph unicode="&#xe926;" horiz-adv-x="3072" d="M1048.938 581.581c71.626 0 140.070-59.2 140.070-152s-66.851-152-140.070-152c-79.587 0-141.664 64-141.664 153.6-1.59 86.4 60.486 150.4 141.664 150.4z" />
<glyph unicode="&#xe927;" horiz-adv-x="3072" d="M1594.893 682.381c-146.438 0-251.491-115.2-251.491-249.6 0-137.6 101.872-254.4 254.675-254.4 138.48 0 249.898 104 249.898 251.2-1.59 166.4-132.112 252.8-253.082 252.8z" />
<glyph unicode="&#xe928;" horiz-adv-x="3072" d="M1596.486 581.581c71.626 0 140.070-59.2 140.070-152s-66.854-152-140.070-152c-79.587 0-141.664 64-141.664 153.6-1.59 86.4 60.486 150.4 141.664 150.4z" />
<glyph unicode="&#xe929;" horiz-adv-x="3072" d="M2131.299 680.781c-135.296 0-240.349-118.4-240.349-251.2 0-150.4 122.563-252.8 237.165-252.8 71.629 0 108.237 27.2 138.48 60.8v-49.6c0-86.4-52.528-139.2-132.112-139.2-76.403 0-114.605 57.6-128.928 89.6l-97.094-40c33.424-72 101.869-147.2 224.429-147.2 133.706 0 235.574 84.8 235.574 262.4v452.8h-105.053v-43.2c-28.65 35.2-73.219 57.6-132.112 57.6z" />
<glyph unicode="&#xe92a;" horiz-adv-x="3072" d="M2140.848 581.581c65.261 0 133.706-57.6 133.706-153.6 0-99.2-66.851-152-135.296-152-71.626 0-138.48 59.2-138.48 150.4 1.594 99.2 70.035 155.2 140.070 155.2z" />
<glyph unicode="&#xe92b;" horiz-adv-x="3072" d="M2839.61 682.381c-127.338 0-233.981-100.8-233.981-251.2 0-158.4 119.379-252.8 245.123-252.8 105.053 0 171.904 59.2 210.106 110.4l-87.542 59.2c-22.285-35.2-60.486-68.8-122.563-68.8-70.035 0-101.869 38.4-122.56 76.8l335.85 140.8-17.51 41.6c-33.424 76.8-108.234 144-206.922 144z" />
<glyph unicode="&#xe92c;" horiz-adv-x="3072" d="M2842.794 584.781c46.16 0 77.994-24 93.91-54.4l-222.838-94.4c-12.736 73.6 57.299 148.8 128.928 148.8z" />
<glyph unicode="&#xe92d;" horiz-adv-x="3072" d="M2446.458 192.781h109.827v742.4h-109.827v-742.4z" />
<glyph unicode="&#xe92e;" glyph-name="netflix" horiz-adv-x="3781" d="M531.22 14.198c-56.714-9.311-113.428-13.036-173.922-20.48l-181.484 525.032v-547.375c-56.714-5.585-107.756-13.032-162.58-22.343v1003.521h151.237l206.060-569.715v569.715h160.689v-938.355zM845.036 583.913c62.385 0 156.908 3.724 213.622 3.724v-156.395c-69.947 0-153.127 0-213.622-3.722v-232.728c92.633 5.585 187.156 13.032 281.679 16.758v-150.808l-440.478-33.512v925.322h440.478v-156.393h-281.679c0-1.862 0-212.247 0-212.247zM1716.539 794.298h-164.47v-720.523c-52.933 0-107.756 0-158.799-1.863v722.386h-164.47v158.255h489.63c-1.89 0-1.89-158.255-1.89-158.255zM1975.532 595.084h217.403v-156.394h-217.403v-355.608h-156.908v869.471h444.258v-156.393h-287.35c0-1.862 0-201.076 0-201.076zM2521.876 220.857c90.742-1.859 181.484-9.307 270.336-13.032v-154.529c-141.785 9.307-283.569 16.754-429.135 20.48v878.778h158.799v-731.696zM2926.434 42.122c51.042-3.722 103.975-5.585 156.908-11.169v921.601h-156.908v-910.431zM3779.033 952.553l-202.279-476.625 202.279-525.032c-60.495 7.448-119.099 18.617-179.594 27.928l-113.428 290.442-117.209-266.24c-56.714 9.311-113.428 13.032-170.142 20.48l204.17 458.008-185.265 471.041h170.142l103.975-262.516 111.537 262.516h175.813z" />
<glyph unicode="&#xe92f;" horiz-adv-x="3520" d="M630.448 857.6c-14.010 45.903-63.046 70.621-108.579 56.497-45.53-14.124-70.048-63.559-56.038-109.462l224.16-695.614c15.76-42.371 61.293-67.091 105.075-54.73 45.53 14.122 73.552 61.792 59.542 107.696 0 1.763-224.16 695.613-224.16 695.613z" />
<glyph unicode="&#xe930;" horiz-adv-x="3520" d="M283.701 742.841c-14.010 45.903-63.045 70.621-108.577 56.497s-70.050-63.559-56.040-109.462l224.161-695.613c15.76-42.371 61.293-67.091 105.072-54.733 45.533 14.125 73.552 61.795 59.542 107.699 0 1.763-224.158 695.612-224.158 695.612z" />
<glyph unicode="&#xe931;" horiz-adv-x="3520" d="M914.15 280.275c45.53 14.125 70.048 63.558 56.038 109.462s-63.046 70.621-108.576 56.496l-691.743-224.221c-42.030-15.888-66.547-61.792-54.288-105.93 14.010-45.904 61.293-74.154 106.826-60.029 3.502 0 691.743 224.221 691.743 224.221z" />
<glyph unicode="&#xe932;" horiz-adv-x="3520" d="M313.472 84.304c45.532 14.125 103.324 33.546 164.617 54.73-14.010 45.904-33.274 104.166-54.288 165.958l-164.618-54.73 54.289-165.958z" />
<glyph unicode="&#xe933;" horiz-adv-x="3520" d="M661.971 199.062c63.043 21.187 120.835 38.842 164.614 54.73-14.010 45.904-33.274 104.166-54.288 165.958l-164.618-54.73 54.291-165.958z" />
<glyph unicode="&#xe934;" horiz-adv-x="3520" d="M800.317 631.613c45.533 14.125 70.051 63.56 56.042 109.463s-63.046 70.621-108.579 56.497l-689.988-225.985c-42.030-15.891-66.547-61.795-54.289-105.933 14.010-47.667 61.293-75.917 106.826-60.026 1.751 0 689.989 225.984 689.989 225.984z" />
<glyph unicode="&#xe935;" horiz-adv-x="3520" d="M201.393 435.642c45.532 14.125 103.323 33.546 164.617 54.73-21.014 63.558-38.528 121.821-54.289 165.96l-164.617-54.731 54.289-165.958z" />
<glyph unicode="&#xe936;" horiz-adv-x="3520" d="M548.138 548.634c63.046 21.187 120.838 38.842 164.618 54.733-21.014 63.558-38.528 121.82-54.288 165.958l-164.618-54.731 54.288-165.959z" />
<glyph unicode="&#xe937;" horiz-adv-x="3520" d="M1612.896 673.986c29.77-14.124 33.274-22.952 8.755-68.857-24.518-47.667-29.77-49.434-61.293-37.075-38.528 15.891-85.811 28.25-117.334 28.25-50.787 0-84.061-17.654-84.061-45.904 0-91.808 292.461-42.371 292.461-240.109 0-98.87-84.061-164.195-210.15-164.195-66.547 0-148.858 22.954-204.896 51.2-28.019 14.125-29.77 22.954-5.254 70.621 21.014 40.608 28.019 45.904 57.792 33.546 49.034-21.187 108.576-37.075 150.608-37.075 47.283 0 77.053 19.421 77.053 47.667 0 90.042-297.712 47.67-297.712 238.346 0 100.635 84.061 169.49 208.4 169.49 59.542-5.297 134.845-22.952 185.632-45.903z" />
<glyph unicode="&#xe938;" horiz-adv-x="3520" d="M1849.312 907.035v-734.455c0-10.592-12.259-22.95-28.019-22.95h-77.053c-17.514 0-28.022 12.358-28.022 22.95v734.455c0 37.076 10.509 38.841 66.547 38.841 63.046 1.766 66.547-3.531 66.547-38.841z" />
<glyph unicode="&#xe939;" horiz-adv-x="3520" d="M2912.317 672.221c28.022-15.89 28.022-24.717-1.75-72.387-28.019-44.138-33.274-47.667-64.797-31.779-22.765 12.358-61.293 22.954-91.062 22.954-96.32 0-159.363-63.558-159.363-160.662 0-100.637 63.043-167.725 159.363-167.725 33.274 0 75.302 12.358 101.571 28.25 28.019 15.888 33.274 15.888 63.043-28.25 26.269-40.608 26.269-49.434 1.754-67.091-42.032-30.013-110.33-52.963-169.872-52.963-176.877 0-295.962 114.758-295.962 286.013s119.085 284.248 297.712 284.248c56.042 1.765 119.085-15.89 159.363-40.607z" />
<glyph unicode="&#xe93a;" horiz-adv-x="3520" d="M3491.968 220.25c22.784-28.25 14.016-38.842-42.016-58.262-56.032-21.187-64.8-19.421-84.064 7.062l-159.36 213.626-71.802-68.854v-139.475c0-10.595-12.259-22.954-28.019-22.954h-77.056c-17.514 0-28.019 12.358-28.019 22.954v732.689c0 37.076 10.506 38.841 66.547 38.841 64.797 0 66.547-5.297 66.547-38.841v-416.663l217.146 210.098c24.512 22.952 36.8 21.186 80.576-7.062 47.264-30.014 50.784-38.841 28-61.794l-161.12-158.896 192.64-252.467z" />
<glyph unicode="&#xe93b;" horiz-adv-x="3520" d="M2392.198 495.67v-316.029c0-17.654-12.259-28.25-28.019-28.25h-75.302c-17.514 0-29.773 12.358-28.022 30.016l1.754 33.542c-40.282-45.901-99.821-70.621-159.363-70.621-113.834 0-190.886 67.091-190.886 165.962 0 105.93 85.811 176.55 217.152 176.55 49.037 0 94.57-8.829 131.344-24.717v37.075c0 58.262-45.533 93.571-122.586 93.571-36.778 0-80.557-14.122-115.584-35.309-28.019-15.891-33.274-14.125-63.043 30.013-28.019 44.138-28.019 52.966 0 70.621 52.538 35.31 126.090 56.496 192.637 56.496 147.104 0 239.92-81.214 239.92-218.923z" />
<glyph unicode="&#xe93c;" horiz-adv-x="3520" d="M2040.198 312.054c0-37.075 31.523-61.792 78.806-61.792 57.789 0 110.326 28.25 140.099 75.917v49.434c-29.773 12.362-68.298 17.658-101.571 17.658-70.051 0-117.334-35.312-117.334-81.216z" />
<glyph unicode="&#xe93d;" horiz-adv-x="4681" d="M733.613 924.281v-550.102c0-183.369-79.184-259.574-265.499-259.574s-265.498 76.205-265.498 259.574v573.916h-179.327c-16.302 0-23.289-7.144-23.289-23.814v-557.246c0-307.2 190.972-414.364 468.114-414.364s468.114 107.164 468.114 414.364v581.059h-179.327c-13.975 0-23.289-7.144-23.289-23.814z" />
<glyph unicode="&#xe93e;" horiz-adv-x="4681" d="M3335.022 788.542c13.975 0 20.963 4.763 25.62 16.67l51.234 130.977c2.331 7.144 0 11.907-6.983 11.907h-721.969c-67.54 0-93.16-21.433-93.16-69.060v-852.538c0-40.487 18.632-57.154 72.197-57.154h673.061c13.975 0 20.963 4.759 25.62 16.667l51.234 130.979c2.331 7.144 0 11.908-6.983 11.908h-617.17v173.841c0 59.533 32.607 88.113 118.779 88.113h267.825c13.975 0 20.963 4.759 25.62 16.667l48.908 126.215c2.326 7.144 0 11.907-6.988 11.907h-456.47v242.903h549.625z" />
<glyph unicode="&#xe93f;" horiz-adv-x="4681" d="M2063.428 486.105c79.184 42.865 111.792 121.451 111.792 214.326 0 216.707-172.344 247.665-351.671 247.665h-409.893c-67.535 0-93.155-21.433-93.155-69.060v-852.538c0-40.487 18.632-57.154 72.197-57.154h500.716c188.645 0 323.725 76.205 323.725 271.477 2.326 116.687-46.582 214.328-153.712 245.284z" />
<glyph unicode="&#xe940;" horiz-adv-x="4681" d="M1874.788 126.513h-353.997v178.605c0 59.533 32.602 88.113 118.774 88.113h235.223c111.787 0 144.394-45.246 144.394-133.359 0-90.492-32.607-133.359-144.394-133.359z" />
<glyph unicode="&#xe941;" horiz-adv-x="4681" d="M1520.791 790.923h316.733c104.799 0 135.075-40.484 135.075-126.214 0-83.349-30.276-126.214-135.075-126.214h-316.733v252.428z" />
<glyph unicode="&#xe942;" horiz-adv-x="4681" d="M4664.842-13.99l-214.26 376.261c107.13 28.579 193.297 100.020 193.297 283.386 0 238.139-144.394 302.437-381.942 302.437h-409.893c-67.54 0-93.155-21.433-93.155-69.060v-885.881c0-16.667 6.988-23.81 23.289-23.81h174.67v285.764c0 59.538 32.602 88.113 118.774 88.113h177.001l193.297-357.21c6.988-9.523 11.644-16.667 25.62-16.667h181.658c16.301 0 16.301 11.908 11.644 16.667z" />
<glyph unicode="&#xe943;" horiz-adv-x="4681" d="M4289.887 493.248h-333.039v297.674h333.039c123.431 0 151.376-50.009 151.376-147.646 0-100.019-25.615-150.028-151.376-150.028z" />
</font>
</defs>
</svg>
