<svg width="96" height="32" viewBox="0 0 96 32" fill="none" xmlns="http://www.w3.org/2000/svg">
<path d="M23.6269 11.1256H12.4352V14.4256H20.3938C19.9959 19.0756 16.1161 21.1256 12.485 21.1256C7.80933 21.1256 3.73057 17.4256 3.73057 12.2756C3.73057 7.22559 7.61036 3.32559 12.485 3.32559C16.2653 3.32559 18.4539 5.72559 18.4539 5.72559L20.742 3.32559C20.742 3.32559 17.7575 0.0255868 12.3358 0.0255868C5.42176 -0.0244132 0.0994835 5.82559 0.0994835 12.1756C0.0994835 18.3756 5.12332 24.4256 12.5347 24.4256C19.0508 24.4256 23.8259 19.9756 23.8259 13.3256C23.8259 11.9256 23.6269 11.1256 23.6269 11.1256Z" fill="white"/>
<path d="M32.7295 8.67559C28.1534 8.67559 24.8705 12.2756 24.8705 16.4756C24.8705 20.7756 28.0539 24.4256 32.829 24.4256C37.1565 24.4256 40.6383 21.1756 40.6383 16.5756C40.5886 11.3756 36.5098 8.67559 32.7295 8.67559Z" fill="white"/>
<path d="M32.7793 11.8256C35.0176 11.8256 37.1565 13.6756 37.1565 16.5756C37.1565 19.4756 35.0674 21.3256 32.7793 21.3256C30.2922 21.3256 28.3523 19.3256 28.3523 16.5256C28.3026 13.8256 30.2425 11.8256 32.7793 11.8256Z" fill="#B3BAC5"/>
<path d="M49.8404 8.67559C45.2642 8.67559 41.9813 12.2756 41.9813 16.4756C41.9813 20.7756 45.1648 24.4256 49.9399 24.4256C54.2674 24.4256 57.7492 21.1756 57.7492 16.5756C57.6995 11.3756 53.6207 8.67559 49.8404 8.67559Z" fill="white"/>
<path d="M49.8902 11.8256C52.1285 11.8256 54.2674 13.6756 54.2674 16.5756C54.2674 19.4756 52.1782 21.3256 49.8902 21.3256C47.4031 21.3256 45.4632 19.3256 45.4632 16.5256C45.4135 13.8256 47.3534 11.8256 49.8902 11.8256Z" fill="#B3BAC5"/>
<path d="M66.6031 8.72559C62.3751 8.72559 59.0922 12.4256 59.0922 16.5756C59.0922 21.2756 62.9223 24.4756 66.5036 24.4756C68.742 24.4756 69.886 23.6256 70.8311 22.5756V24.1256C70.8311 26.8256 69.1896 28.4756 66.7026 28.4756C64.315 28.4756 63.1212 26.6756 62.6736 25.6756L59.6394 26.9256C60.6839 29.1756 62.8228 31.5256 66.6528 31.5256C70.8311 31.5256 74.0145 28.8756 74.0145 23.3256V9.17559H70.7316V10.5256C69.8363 9.42559 68.4435 8.72559 66.6031 8.72559Z" fill="white"/>
<path d="M66.9015 11.8256C68.9409 11.8256 71.0798 13.6256 71.0798 16.6256C71.0798 19.7256 68.9907 21.3756 66.8518 21.3756C64.6135 21.3756 62.5243 19.5256 62.5243 16.6756C62.5741 13.5756 64.7129 11.8256 66.9015 11.8256Z" fill="#B3BAC5"/>
<path d="M88.7378 8.67559C84.7585 8.67559 81.4259 11.8256 81.4259 16.5256C81.4259 21.4756 85.1565 24.4256 89.086 24.4256C92.3689 24.4256 94.458 22.5756 95.6518 20.9756L92.9161 19.1256C92.2197 20.2256 91.0259 21.2756 89.086 21.2756C86.8974 21.2756 85.9026 20.0756 85.256 18.8756L95.7513 14.4756L95.2041 13.1756C94.1596 10.7756 91.8218 8.67559 88.7378 8.67559Z" fill="white"/>
<path d="M88.8373 11.7256C90.2798 11.7256 91.2746 12.4756 91.772 13.4256L84.8083 16.3756C84.4103 14.0756 86.5989 11.7256 88.8373 11.7256Z" fill="#B3BAC5"/>
<path d="M76.4518 23.9756H79.8839V0.775587H76.4518V23.9756Z" fill="white"/>
</svg>
