<svg width="96" height="26" viewBox="0 0 96 26" fill="none" xmlns="http://www.w3.org/2000/svg">
<path d="M13.488 24.0145C12.048 24.2509 10.608 24.3455 9.072 24.5345L4.464 11.2036V25.1018C3.024 25.2436 1.728 25.4327 0.335999 25.6691V0.189087H4.176L9.408 14.6545V0.189087H13.488V24.0145Z" fill="white"/>
<path d="M21.456 9.54909C23.04 9.54909 25.44 9.45454 26.88 9.45454V13.4255C25.104 13.4255 22.992 13.4255 21.456 13.52V19.4291C23.808 19.2873 26.208 19.0982 28.608 19.0036V22.8327L17.424 23.6836V0.189087H28.608V4.16H21.456C21.456 4.20727 21.456 9.54909 21.456 9.54909Z" fill="white"/>
<path d="M43.584 4.20727H39.408V22.5018C38.064 22.5018 36.672 22.5018 35.376 22.5491V4.20727H31.2V0.189087H43.632C43.584 0.189087 43.584 4.20727 43.584 4.20727Z" fill="white"/>
<path d="M50.16 9.26545H55.68V13.2364H50.16V22.2655H46.176V0.189087H57.456V4.16H50.16C50.16 4.20727 50.16 9.26545 50.16 9.26545Z" fill="white"/>
<path d="M64.032 18.7673C66.336 18.8145 68.64 19.0036 70.896 19.0982V23.0218C67.296 22.7855 63.696 22.5964 60 22.5018V0.189087H64.032V18.7673Z" fill="white"/>
<path d="M74.304 23.3055C75.6 23.4 76.944 23.4473 78.288 23.5891V0.189087H74.304V23.3055Z" fill="white"/>
<path d="M95.952 0.189087L90.816 12.2909L95.952 25.6218C94.416 25.4327 92.928 25.1491 91.392 24.9127L88.512 17.5382L85.536 24.2982C84.096 24.0618 82.656 23.9673 81.216 23.7782L86.4 12.1491L81.696 0.189087H86.016L88.656 6.85454L91.488 0.189087H95.952Z" fill="white"/>
</svg>
