<svg width="96" height="21" viewBox="0 0 96 21" fill="none" xmlns="http://www.w3.org/2000/svg">
<path d="M15.0448 0.732513V12.0139C15.0448 15.7744 13.4209 17.3372 9.6 17.3372C5.77911 17.3372 4.15522 15.7744 4.15522 12.0139V0.244141H0.477612C0.143284 0.244141 0 0.390652 0 0.732513V12.1604C0 18.4604 3.91642 20.6581 9.6 20.6581C15.2836 20.6581 19.2 18.4604 19.2 12.1604V0.244141H15.5224C15.2358 0.244141 15.0448 0.390652 15.0448 0.732513Z" fill="white"/>
<path d="M68.394 3.51623C68.6806 3.51623 68.8239 3.41856 68.9194 3.17437L69.9701 0.488327C70.0179 0.341815 69.9701 0.244141 69.8269 0.244141H55.0209C53.6358 0.244141 53.1104 0.683676 53.1104 1.66042V19.1441C53.1104 19.9744 53.4925 20.3162 54.591 20.3162H68.394C68.6806 20.3162 68.8239 20.2186 68.9194 19.9744L69.9701 17.2883C70.0179 17.1418 69.9701 17.0441 69.8269 17.0441H57.1701V13.479C57.1701 12.2581 57.8388 11.672 59.606 11.672H65.0985C65.3851 11.672 65.5284 11.5744 65.6239 11.3302L66.6269 8.74181C66.6746 8.5953 66.6269 8.49763 66.4836 8.49763H57.1224V3.51623H68.394Z" fill="white"/>
<path d="M42.3164 9.71856C43.9403 8.83949 44.609 7.22786 44.609 5.32321C44.609 0.879024 41.0746 0.244141 37.397 0.244141H28.991C27.606 0.244141 27.0806 0.683676 27.0806 1.66042V19.1441C27.0806 19.9744 27.4627 20.3162 28.5612 20.3162H38.8298C42.6985 20.3162 45.4687 18.7534 45.4687 14.7488C45.5164 12.3558 44.5134 10.3534 42.3164 9.71856Z" fill="white"/>
<path d="M38.4478 17.093H31.1881V13.4302C31.1881 12.2093 31.8567 11.6232 33.6239 11.6232H38.4478C40.7403 11.6232 41.409 12.5511 41.409 14.3581C41.409 16.2139 40.7403 17.093 38.4478 17.093Z" fill="#B3BAC5"/>
<path d="M31.1881 3.4674H37.6836C39.8328 3.4674 40.4537 4.29763 40.4537 6.05577C40.4537 7.76507 39.8328 8.64414 37.6836 8.64414H31.1881V3.4674Z" fill="#B3BAC5"/>
<path d="M95.6657 19.9744L91.2717 12.2581C93.4687 11.672 95.2358 10.2069 95.2358 6.44647C95.2358 1.56275 92.2746 0.244141 87.403 0.244141H78.997C77.6119 0.244141 77.0866 0.683676 77.0866 1.66042V19.8279C77.0866 20.1697 77.2299 20.3162 77.5642 20.3162H81.1463V14.4558C81.1463 13.2348 81.8149 12.6488 83.5821 12.6488H87.212L91.1761 19.9744C91.3194 20.1697 91.4149 20.3162 91.7015 20.3162H95.4269C95.7612 20.3162 95.7612 20.072 95.6657 19.9744Z" fill="white"/>
<path d="M87.9762 9.57206H81.1463V3.46741H87.9762C90.5075 3.46741 91.0806 4.49299 91.0806 6.49531C91.0806 8.54648 90.5553 9.57206 87.9762 9.57206Z" fill="#B3BAC5"/>
</svg>
